<svg width="960" viewBox="0 0 960 220" style="background:#FDFAF6; border-radius:20px; padding:28px 36px; box-sizing:border-box; display:block; margin:0 auto;" xmlns="http://www.w3.org/2000/svg">

  <!-- Antenna -->
  <line x1="120" y1="20" x2="120" y2="44" stroke="#A82020" stroke-width="2" stroke-linecap="round"/>
  <circle cx="120" cy="14" r="6" fill="#A82020"/>
  <circle cx="120" cy="12" r="2" fill="#FAE8E8" opacity="0.6"/>

  <!-- Head -->
  <rect x="80" y="44" width="80" height="68" rx="18" fill="#A82020"/>

  <!-- Ear nubs -->
  <rect x="66" y="62" width="14" height="24" rx="7" fill="#A82020"/>
  <rect x="160" y="62" width="14" height="24" rx="7" fill="#8B1A1A"/>

  <!-- Eyes -->
  <rect x="92" y="56" width="20" height="20" rx="6" fill="#FAF6EF"/>
  <rect x="128" y="56" width="20" height="20" rx="6" fill="#FAF6EF"/>
  <circle cx="102" cy="66" r="5.5" fill="#6B1414"/>
  <circle cx="138" cy="66" r="5.5" fill="#6B1414"/>
  <circle cx="104" cy="63" r="2" fill="white"/>
  <circle cx="140" cy="63" r="2" fill="white"/>

  <!-- Mouth -->
  <rect x="96" y="88" width="48" height="11" rx="5.5" fill="#8B1A1A"/>
  <rect x="101" y="92" width="10" height="3" rx="1.5" fill="#FAE8E8" opacity="0.55"/>
  <rect x="115" y="92" width="14" height="3" rx="1.5" fill="#FAE8E8" opacity="0.55"/>
  <rect x="133" y="92" width="7" height="3" rx="1.5" fill="#FAE8E8" opacity="0.55"/>

  <!-- Body -->
  <rect x="84" y="116" width="72" height="56" rx="16" fill="#A82020"/>

  <!-- Chest display -->
  <rect x="94" y="126" width="52" height="32" rx="6" fill="#8B1A1A" opacity="0.5"/>
  <rect x="98" y="146" width="7" height="10" rx="2" fill="#FAE8E8" opacity="0.45"/>
  <rect x="108" y="140" width="7" height="16" rx="2" fill="#FAE8E8" opacity="0.62"/>
  <rect x="118" y="134" width="7" height="22" rx="2" fill="#FAE8E8" opacity="0.82"/>
  <rect x="128" y="138" width="7" height="18" rx="2" fill="#FAE8E8" opacity="0.62"/>

  <!-- Arms -->
  <rect x="62" y="120" width="14" height="36" rx="7" fill="#A82020"/>
  <rect x="164" y="120" width="14" height="36" rx="7" fill="#A82020"/>
  <circle cx="69" cy="160" r="9" fill="#8B1A1A"/>
  <circle cx="171" cy="160" r="9" fill="#8B1A1A"/>

  <!-- Legs -->
  <rect x="92" y="172" width="22" height="28" rx="8" fill="#8B1A1A"/>
  <rect x="126" y="172" width="22" height="28" rx="8" fill="#8B1A1A"/>
  <rect x="86" y="195" width="32" height="10" rx="5" fill="#6B1414"/>
  <rect x="122" y="195" width="32" height="10" rx="5" fill="#6B1414"/>

  <!-- Wordmark -->
  <text x="228" y="132" font-family="system-ui, sans-serif" font-weight="500" font-size="62" fill="#1A1208" letter-spacing="-0.03em">SwarmCast</text>

  <!-- Tagline -->
  <text x="230" y="162" font-family="system-ui, sans-serif" font-weight="400" font-size="14" fill="#A82020" letter-spacing="0.04em">macro behavioral simulation · swarm intelligence</text>

</svg>
