<svg viewBox="0 0 64 64" xmlns="http://www.w3.org/2000/svg">
  <!-- Antenna -->
  <line x1="32" y1="3" x2="32" y2="12" stroke="#A82020" stroke-width="2" stroke-linecap="round"/>
  <circle cx="32" cy="2" r="3" fill="#A82020"/>

  <!-- Head -->
  <rect x="12" y="12" width="40" height="30" rx="8" fill="#A82020"/>

  <!-- Ear nubs -->
  <rect x="6" y="19" width="6" height="11" rx="3" fill="#A82020"/>
  <rect x="52" y="19" width="6" height="11" rx="3" fill="#8B1A1A"/>

  <!-- Eyes -->
  <rect x="16" y="17" width="11" height="11" rx="3" fill="#FAF6EF"/>
  <rect x="37" y="17" width="11" height="11" rx="3" fill="#FAF6EF"/>
  <circle cx="21.5" cy="22.5" r="3.5" fill="#6B1414"/>
  <circle cx="42.5" cy="22.5" r="3.5" fill="#6B1414"/>
  <circle cx="22.5" cy="21" r="1.5" fill="white"/>
  <circle cx="43.5" cy="21" r="1.5" fill="white"/>

  <!-- Mouth -->
  <rect x="20" y="34" width="24" height="5" rx="2.5" fill="#8B1A1A"/>

  <!-- Body -->
  <rect x="16" y="44" width="32" height="18" rx="6" fill="#A82020"/>

  <!-- Chest bars -->
  <rect x="20" y="52" width="4" height="6" rx="1" fill="#FAE8E8" opacity="0.5"/>
  <rect x="27" y="49" width="4" height="9" rx="1" fill="#FAE8E8" opacity="0.75"/>
  <rect x="34" y="47" width="4" height="11" rx="1" fill="#FAE8E8" opacity="0.9"/>
  <rect x="41" y="50" width="4" height="8" rx="1" fill="#FAE8E8" opacity="0.6"/>
</svg>
